<?xml version="1.0" encoding="iso-8859-1"?>
<!-- Generator: Adobe Illustrator 19.0.0, SVG Export Plug-In . SVG Version: 6.00 Build 0)  -->
<svg version="1.1" id="Capa_1" xmlns="http://www.w3.org/2000/svg" xmlns:xlink="http://www.w3.org/1999/xlink" x="0px" y="0px"
	 viewBox="0 0 512 512" style="enable-background:new 0 0 512 512;" xml:space="preserve">
<g>
	<g>
		<path d="M467,30.992H45c-24.813,0-45,20.187-45,45v270c0,24.813,20.187,45,45,45h227v75c0,11.124,11.736,18.401,21.708,13.417
			L347,452.763l53.292,26.646c4.659,2.33,10.181,2.071,14.594-0.657c4.422-2.733,7.114-7.561,7.114-12.76v-75h45
			c24.813,0,45-20.187,45-45v-270C512,51.179,491.813,30.992,467,30.992z M392,441.721l-38.292-19.145
			c-4.223-2.111-9.193-2.111-13.416,0L302,441.722v-60.935c14.066,6.66,29.537,10.162,45.315,10.162
			c15.436,0,30.553-3.244,44.685-9.971V441.721z M346,360.993c-41.625-0.492-75.646-35.336-73.945-78.001
			c1.609-40.374,34.793-72.006,75.034-72.006c40.198,0,73.86,32.14,74.892,73.007C423.047,326.168,389.133,361.503,346,360.993z
			 M346,181.037c-56.333,0.362-101.974,45.29-103.893,100.954c-0.22,6.393,0.135,12.751,1.043,19H117.43
			c-4.527-12.768-14.662-22.903-27.43-27.43V148.422c12.768-4.527,22.903-14.662,27.43-27.43h277.14
			c4.527,12.768,14.662,22.903,27.43,27.43v64.16C401.775,191.919,374.293,180.855,346,181.037z M482,345.992
			c0,8.271-6.729,15-15,15h-45v-1.518c19.427-19.812,30-45.469,30-73.482v-150c0-8.284-6.716-15-15-15c-8.271,0-15-6.729-15-15
			c0-8.284-6.716-15-15-15H105c-8.284,0-15,6.716-15,15c0,8.271-6.729,15-15,15c-8.284,0-15,6.716-15,15v150c0,8.284,6.716,15,15,15
			c8.271,0,15,6.729,15,15c0,8.284,6.716,15,15,15h147.207c4.918,10.386,11.563,20,19.793,28.41v1.59H45c-8.271,0-15-6.729-15-15
			v-270c0-8.271,6.729-15,15-15h422c8.271,0,15,6.729,15,15V345.992z"/>
	</g>
</g>
<g>
	<g>
		<path d="M347,240.992c-24.813,0-45,20.187-45,45s20.187,45,45,45s45-20.187,45-45S371.813,240.992,347,240.992z M347,300.992
			c-8.271,0-15-6.729-15-15s6.729-15,15-15s15,6.729,15,15S355.271,300.992,347,300.992z"/>
	</g>
</g>
<g>
</g>
<g>
</g>
<g>
</g>
<g>
</g>
<g>
</g>
<g>
</g>
<g>
</g>
<g>
</g>
<g>
</g>
<g>
</g>
<g>
</g>
<g>
</g>
<g>
</g>
<g>
</g>
<g>
</g>
</svg>
