<?xml version="1.0" encoding="iso-8859-1"?>
<!-- Generator: Adobe Illustrator 19.0.0, SVG Export Plug-In . SVG Version: 6.00 Build 0)  -->
<svg version="1.1" id="Capa_1" xmlns="http://www.w3.org/2000/svg" xmlns:xlink="http://www.w3.org/1999/xlink" x="0px" y="0px"
	 viewBox="0 0 512 512" style="enable-background:new 0 0 512 512;" xml:space="preserve">
<g>
	<g>
		<path d="M488.247,87.362l10.603-10.602c17.534-17.536,17.534-46.07-0.001-63.608c-17.537-17.537-46.073-17.536-63.609,0
			l-10.602,10.602l-10.602-10.602c-17.536-17.537-46.071-17.536-63.608,0l-21.203,21.203c-4.082,4.081-7.272,8.815-9.496,13.958
			c-17.172-9.804-39.473-7.394-54.112,7.245l-21.202,21.203c-17.536,17.536-17.536,46.071,0,63.608l31.804,31.804L172.204,276.187
			L140.4,244.383c-17.535-17.536-46.071-17.537-63.608,0L55.59,265.585c-14.724,14.724-17.069,37.005-7.256,54.118
			c-5.139,2.224-9.868,5.412-13.946,9.49l-21.203,21.203c-17.578,17.577-17.58,46.029,0,63.608l10.602,10.602l-10.602,10.602
			c-17.536,17.536-17.536,46.071,0,63.608c17.535,17.536,46.071,17.537,63.608,0l10.602-10.602l10.602,10.602
			c17.578,17.578,46.029,17.58,63.609,0l21.202-21.203c4.079-4.079,7.267-8.808,9.49-13.947c17.091,9.798,39.372,7.49,54.117-7.256
			l21.203-21.203c17.537-17.536,17.537-46.071,0-63.608l-31.804-31.804l104.015-104.016l31.804,31.804
			c17.535,17.536,46.071,17.537,63.609,0l21.203-21.203c14.725-14.724,17.07-37.004,7.256-54.118
			c5.139-2.224,9.867-5.411,13.946-9.49l21.205-21.204c17.535-17.536,17.535-46.071-0.001-63.608L488.247,87.362z M55.59,477.614
			c-5.845,5.846-15.356,5.847-21.203,0c-5.845-5.846-5.845-15.357,0-21.203l10.601-10.602l21.203,21.203L55.59,477.614z
			 M161.602,456.41l-21.202,21.204c-5.86,5.859-15.342,5.86-21.203,0l-84.811-84.812c-5.859-5.859-5.859-15.342,0-21.201
			l21.203-21.203c5.859-5.859,15.341-5.86,21.203,0l84.811,84.811C167.461,441.067,167.463,450.55,161.602,456.41z M246.413,392.802
			c5.846,5.845,5.846,15.357,0.001,21.203l-21.204,21.203c-5.859,5.859-15.341,5.86-21.203,0
			c-5.05-5.05-122.163-122.163-127.216-127.216c-5.859-5.86-5.86-15.342,0-21.203l21.203-21.203c5.846-5.845,15.356-5.845,21.203,0
			L246.413,392.802z M214.61,318.593l-21.204-21.203l104.016-104.015l21.203,21.203L214.61,318.593z M435.24,225.179l-21.203,21.203
			c-5.846,5.845-15.355,5.847-21.204,0l-84.806-84.806c-0.002-0.001-0.003-0.003-0.005-0.005s-0.003-0.003-0.005-0.004
			l-42.401-42.401c-5.845-5.846-5.845-15.357,0-21.203l21.201-21.203c5.846-5.845,15.356-5.846,21.204,0
			c5.048,5.048,122.567,122.567,127.216,127.216C441.1,209.838,441.099,219.319,435.24,225.179z M477.646,140.368l-21.204,21.203
			c-5.858,5.858-15.342,5.861-21.202,0h-0.001c-3.734-3.734-81.106-81.105-84.816-84.816c-5.854-5.861-5.855-15.337,0.005-21.198
			l21.203-21.204c5.846-5.846,15.357-5.845,21.203,0c9.028,9.028,75.846,75.846,84.812,84.811
			C483.49,125.011,483.49,134.523,477.646,140.368z M477.646,55.557l-10.602,10.602l-21.203-21.203l10.601-10.602
			c5.847-5.845,15.359-5.845,21.203,0C483.491,40.201,483.491,49.712,477.646,55.557z"/>
	</g>
</g>
<g>
</g>
<g>
</g>
<g>
</g>
<g>
</g>
<g>
</g>
<g>
</g>
<g>
</g>
<g>
</g>
<g>
</g>
<g>
</g>
<g>
</g>
<g>
</g>
<g>
</g>
<g>
</g>
<g>
</g>
</svg>
