<svg xmlns="http://www.w3.org/2000/svg" viewBox="0 0 512 450.02"><title>certification</title><g id="Layer_2" data-name="Layer 2"><g id="Capa_1" data-name="Capa 1"><path d="M467,0H45A45.05,45.05,0,0,0,0,45V315a45.05,45.05,0,0,0,45,45H272v75a15,15,0,0,0,21.71,13.42L347,421.77l53.29,26.65A15,15,0,0,0,422,435V360h45a45.05,45.05,0,0,0,45-45V45A45.05,45.05,0,0,0,467,0ZM392,410.73l-38.29-19.14a15,15,0,0,0-13.42,0L302,410.73V349.79A105.88,105.88,0,0,0,347.32,360,103.29,103.29,0,0,0,392,350ZM346,330a75,75,0,1,1,76-77A75,75,0,0,1,346,330Zm0-180A104.71,104.71,0,0,0,242.11,251a106.63,106.63,0,0,0,1,19H117.43A45.22,45.22,0,0,0,90,242.57V117.43A45.22,45.22,0,0,0,117.43,90H394.57A45.22,45.22,0,0,0,422,117.43v64.16A105.19,105.19,0,0,0,346,150ZM482,315a15,15,0,0,1-15,15H422v-1.52A103.54,103.54,0,0,0,452,255V105a15,15,0,0,0-15-15,15,15,0,0,1-15-15,15,15,0,0,0-15-15H105A15,15,0,0,0,90,75,15,15,0,0,1,75,90a15,15,0,0,0-15,15V255a15,15,0,0,0,15,15,15,15,0,0,1,15,15,15,15,0,0,0,15,15H252.21A104.6,104.6,0,0,0,272,328.41V330H45a15,15,0,0,1-15-15V45A15,15,0,0,1,45,30H467a15,15,0,0,1,15,15Z" style="fill:#ffba00"/><path d="M347,210a45,45,0,1,0,45,45A45.05,45.05,0,0,0,347,210Zm0,60a15,15,0,1,1,15-15A15,15,0,0,1,347,270Z" style="fill:#ffba00"/></g></g></svg>
