<svg xmlns="http://www.w3.org/2000/svg" viewBox="0 0 18.1 26"><title>discount</title><g id="Layer_2" data-name="Layer 2"><g id="Layer_1-2" data-name="Layer 1"><path d="M13.9,7h2a.94.94,0,0,0,1-1V5.8A7,7,0,0,0,3,7a9.69,9.69,0,0,0,.3,2.3c.1.4.2.7.3,1.1a.5.5,0,0,1-.5.6H1a.94.94,0,0,0-1,1v2a.94.94,0,0,0,1,1H4.3c.2,0,.5.2.5.4A13.7,13.7,0,0,1,5,17c0,2.1-2.4,4-4.8,5.6A.76.76,0,0,0,0,23a.37.37,0,0,0,.1.3l1.7,2.5a.76.76,0,0,0,.4.2.37.37,0,0,0,.3-.1c1.2-.8,2.8-.9,5.6-.9a10.23,10.23,0,0,1,3.6.6,8.6,8.6,0,0,0,2.4.4,7.5,7.5,0,0,0,3.5-.9l.2-.1a.54.54,0,0,0,.3-.4c0-.1,0-.2-.1-.2l-1.4-2.7a.57.57,0,0,0-.7-.2l-.3.2a2.54,2.54,0,0,1-1.6.4,4.51,4.51,0,0,1-1.3-.3,16.22,16.22,0,0,0-4.1-.7c-.4,0-.6-.3-.4-.7A7.31,7.31,0,0,0,9,17.1a7.08,7.08,0,0,0-.1-1.4.56.56,0,0,1,.5-.6H15a.94.94,0,0,0,1-1v-2a.94.94,0,0,0-1-1H8.3a.66.66,0,0,1-.5-.4c-.2-.9-.5-1.8-.7-2.5A3.75,3.75,0,0,1,7,7.1a3,3,0,0,1,3-3,3,3,0,0,1,2.9,2.2A1.13,1.13,0,0,0,13.9,7Z" style="fill:#ffba00"/></g></g></svg>
