<svg xmlns="http://www.w3.org/2000/svg" width="49.65" height="49.65" viewBox="0 0 49.65 49.65"><title>instagram-logo</title><g id="Layer_2" data-name="Layer 2"><g id="Capa_1" data-name="Capa 1"><path d="M24.83,29.8a5,5,0,1,0-5-5A5,5,0,0,0,24.83,29.8Z" style="fill:#ffba00"/><polygon points="35.68 18.75 35.68 14.58 35.68 13.96 35.05 13.96 30.89 13.97 30.91 18.76 35.68 18.75" style="fill:#ffba00"/><path d="M24.83,0A24.83,24.83,0,1,0,49.65,24.83,24.85,24.85,0,0,0,24.83,0ZM38.94,21.93V33.49a5.46,5.46,0,0,1-5.46,5.46H16.16a5.46,5.46,0,0,1-5.46-5.46V16.17a5.46,5.46,0,0,1,5.46-5.46H33.49a5.46,5.46,0,0,1,5.46,5.46Z" style="fill:#ffba00"/><path d="M32.55,24.83a7.72,7.72,0,1,1-14.88-2.9H13.46V33.49a2.71,2.71,0,0,0,2.71,2.7H33.49a2.71,2.71,0,0,0,2.71-2.7V21.93H32A7.62,7.62,0,0,1,32.55,24.83Z" style="fill:#ffba00"/></g></g></svg>