<svg xmlns="http://www.w3.org/2000/svg" viewBox="0 0 512 512"><title>free-session</title><g id="Layer_2" data-name="Layer 2"><g id="Capa_1" data-name="Capa 1"><path d="M488.25,87.36l10.6-10.6a45,45,0,0,0-63.61-63.61l-10.6,10.6L414,13.15a45,45,0,0,0-63.61,0l-21.2,21.2a44.92,44.92,0,0,0-9.5,14,45.05,45.05,0,0,0-54.11,7.24l-21.2,21.2a45,45,0,0,0,0,63.61l31.8,31.8-104,104-31.8-31.8a45,45,0,0,0-63.61,0l-21.2,21.2a45,45,0,0,0-7.26,54.12,44.93,44.93,0,0,0-13.95,9.49l-21.2,21.2a45,45,0,0,0,0,63.61l10.6,10.6-10.6,10.6a45,45,0,0,0,63.61,63.61l10.6-10.6L98,498.82a45,45,0,0,0,63.61,0l21.2-21.2a44.92,44.92,0,0,0,9.49-13.95,45,45,0,0,0,54.12-7.26l21.2-21.2a45,45,0,0,0,0-63.61l-31.8-31.8,104-104,31.8,31.8a45,45,0,0,0,63.61,0l21.2-21.2a45,45,0,0,0,7.26-54.12,44.93,44.93,0,0,0,13.95-9.49l21.2-21.2a45,45,0,0,0,0-63.61ZM55.59,477.61a15,15,0,0,1-21.2-21.2L45,445.81,66.19,467Zm106-21.2-21.2,21.2a15,15,0,0,1-21.2,0L34.39,392.8a15,15,0,0,1,0-21.2l21.2-21.2a15,15,0,0,1,21.2,0l84.81,84.81A15,15,0,0,1,161.6,456.41Zm84.81-63.61a15,15,0,0,1,0,21.2l-21.2,21.2a15,15,0,0,1-21.2,0L76.79,308a15,15,0,0,1,0-21.2L98,265.59a15,15,0,0,1,21.2,0Zm-31.8-74.21-21.2-21.2,104-104,21.2,21.2Zm220.63-93.41L414,246.38a15,15,0,0,1-21.2,0L308,161.58h0l-42.4-42.4a15,15,0,0,1,0-21.2l21.2-21.2a15,15,0,0,1,21.2,0L435.24,204A15,15,0,0,1,435.24,225.18Zm42.41-84.81-21.2,21.2a15,15,0,0,1-21.2,0h0L350.42,76.76a15,15,0,0,1,0-21.2l21.2-21.2a15,15,0,0,1,21.2,0l84.81,84.81A15,15,0,0,1,477.65,140.37Zm0-84.81L467,66.16,445.84,45l10.6-10.6a15,15,0,0,1,21.2,21.2Z" style="fill:#ffba00"/></g></g></svg>
